<?xml version="1.0" encoding="UTF-8"?>
<svg id="Layer_1" data-name="Layer 1" xmlns="http://www.w3.org/2000/svg" xmlns:xlink="http://www.w3.org/1999/xlink" viewBox="0 0 580.24 151.13">
  <defs>
    <style>
      .cls-1 {
        fill: url(#linear-gradient-2);
      }

      .cls-2 {
        fill: url(#linear-gradient);
      }
    </style>
    <linearGradient id="linear-gradient" x1="0" y1="104.71" x2="580.24" y2="104.71" gradientUnits="userSpaceOnUse">
      <stop offset="0" stop-color="#e0d1a7"/>
      <stop offset=".14" stop-color="#dccca3"/>
      <stop offset=".3" stop-color="#d0bf98"/>
      <stop offset=".46" stop-color="#bca985"/>
      <stop offset=".63" stop-color="#a18a6b"/>
      <stop offset=".8" stop-color="#7e624a"/>
      <stop offset=".97" stop-color="#543222"/>
      <stop offset=".98" stop-color="#502d1e"/>
    </linearGradient>
    <linearGradient id="linear-gradient-2" x1="212.24" y1="12.24" x2="368.01" y2="12.24" xlink:href="#linear-gradient"/>
  </defs>
  <path class="cls-2" d="M88.57,145.45c-2.68-3.08-5.02-6.89-6.96-11.51l-30.91-75.66h-3.75l-30.91,75.59c-1.94,4.62-4.48,8.5-7.63,11.57-3.14,3.08-5.95,4.62-8.43,4.62v1.07h28.84v-1.07c-1.67,0-3.41-.74-5.28-2.21-3.14-2.34-4.75-5.42-4.75-9.1,0-1.54.33-3.14,1-4.88l4.68-11.37h34.12l3.88,9.5c1,2.81,1.54,5.42,1.54,7.83,0,1.67-.27,3.28-.74,4.75-1.2,3.68-3.01,5.49-5.49,5.49v1.07h37.73v-1.07c-2.01,0-4.35-1.54-6.96-4.62ZM25.68,118.75l15.87-38.06,15.87,38.06h-31.73ZM484.71,150.06v1.07s37.73,0,37.73,0v-1.07c-2.48,0-4.28-1.81-5.49-5.49-.47-1.47-.74-3.08-.74-4.75,0-2.41.54-5.02,1.54-7.83l3.88-9.5h34.12s4.68,11.37,4.68,11.37c.67,1.74,1,3.35,1,4.88,0,3.68-1.61,6.76-4.75,9.1-1.87,1.47-3.61,2.21-5.28,2.21v1.07s28.84,0,28.84,0v-1.07c-2.48,0-5.28-1.54-8.43-4.62-3.14-3.08-5.69-6.96-7.63-11.57l-30.91-75.59h-3.75s-30.91,75.66-30.91,75.66c-1.94,4.62-4.28,8.43-6.96,11.51-2.61,3.08-4.95,4.62-6.96,4.62ZM522.83,118.75l15.87-38.06,15.87,38.06h-31.73ZM122.35,151.13l-30.97-75.66c-1.94-4.62-4.21-8.43-6.89-11.51-2.68-3.08-5.02-4.62-7.02-4.62v-1.07h37.8v1.07c-2.47,0-4.35,1.81-5.55,5.42-.47,1.47-.74,3.08-.74,4.75,0,2.41.54,5.02,1.54,7.76l19.5,48.5,20.5-50.31c.74-2.01,1.07-3.88,1.07-5.62,0-2.21-.8-4.48-2.41-6.89-1.61-2.41-3.68-3.61-6.15-3.61v-1.07h27.3v1.07c-2.48,0-5.22,1.54-8.36,4.62-3.14,3.08-5.75,6.89-7.69,11.51-7.96,19.67-18.26,44.89-30.91,75.66h-1ZM175.67,151.13v-1.07c2.48,0,4.62-1.54,6.36-4.68,1.81-3.08,2.68-6.96,2.68-11.51v-58.4c0-4.55-.87-8.36-2.68-11.51-1.74-3.08-3.88-4.62-6.36-4.62v-1.07h72.11l2.54,17.73h-1.07c-.8-4.15-3.28-7.96-7.43-11.44-4.15-3.48-8.5-2.54-12.98-2.54h-17.93c-2.48,0-4.62,1.54-6.36,4.62-1.74,3.14-2.61,4.28-2.61,8.83v28.7h19.4c4.55,0,8.43-.87,11.51-2.68,3.14-1.74,4.68-3.88,4.68-6.36h1.07v21.74h-1.07c0-2.47-1.54-4.55-4.68-6.35-3.08-1.74-6.96-2.61-11.51-2.61h-19.4v25.95c0,4.55.87,5.75,2.61,8.83,1.74,3.14,3.88,4.68,6.36,4.68h21.41c4.48,0,8.83.87,12.98-2.81,4.21-3.68,6.69-7.83,7.56-12.58h1.07l-2.68,19.13h-75.59ZM336.75,151.13l-64.68-80.89v63.63c0,4.55.87,8.43,2.61,11.51,1.81,3.14,3.88,4.68,6.42,4.68v1.07h-21.81v-1.07c2.48,0,4.62-1.54,6.36-4.68,1.81-3.08,2.68-6.96,2.68-11.51v-66.69l-3.14-4.21c-1.74-2.41-3.68-3.61-5.89-3.61v-1.07h25.35l50.5,63.6v-46.41c0-4.55-.87-8.36-2.61-11.51-1.81-3.08-3.88-4.62-6.42-4.62v-1.07h21.81v1.07c-2.47,0-4.62,1.54-6.42,4.62-1.74,3.14-2.61,6.96-2.61,11.51v75.66h-2.14ZM353.27,151.13v-1.07c2.48,0,4.62-1.54,6.36-4.68,1.81-3.08,2.68-6.96,2.68-11.51v-58.4c0-4.55-.87-8.36-2.68-11.51-1.74-3.08-3.88-4.62-6.36-4.62v-1.07h35.25v1.07c-2.48,0-4.55,1.54-6.36,4.62-1.74,3.14-2.61,6.96-2.61,11.51v58.4c0,4.55.87,8.43,2.61,11.51,1.81,3.14,3.88,4.68,6.36,4.68v1.07h-35.25ZM481.04,81.03c-3.81-7.02-9.3-12.58-16.39-16.66-7.16-4.08-15.59-6.09-25.42-6.09h-45.35v1.07c2.48,0,4.62,1.54,6.42,4.62,1.74,3.14,2.61,6.96,2.61,11.51v58.4c0,4.55-.87,8.36-2.61,11.51-1.81,3.14-3.95,4.68-6.42,4.68v1.07h45.35c9.83,0,18.26-2.07,25.42-6.15,7.09-4.08,12.58-9.63,16.39-16.66,3.81-7.02,5.69-14.85,5.69-23.61s-1.87-16.66-5.69-23.68ZM441.63,147.38h-12.51c-2.48,0-4.55-1.54-6.29-4.68-1.81-3.14-2.68-6.96-2.68-11.51v-55.72c0-4.55.87-5.68,2.68-8.83,1.74-3.08,3.81-4.62,6.29-4.62h7.49c3.88,0,7.73.9,11.24,2.55,9.11,4.27,14.8,13.11,17.72,22.51,2.37,7.6,3,15.64,2.99,23.6-.03,14.29-2.9,31.87-19.08,35.82-2.56.63-5.21.87-7.85.87Z"/>
  <path class="cls-1" d="M230.86,16.94l2.6,1.24-.27.6c-.41.92-.99,1.76-1.71,2.48-.71.71-1.5,1.31-2.36,1.78-.86.48-1.79.84-2.75,1.08-.96.24-1.92.36-2.84.36-1.67,0-3.21-.37-4.6-1.1-1.37-.72-2.56-1.68-3.55-2.84-.99-1.16-1.77-2.49-2.32-3.96-.55-1.47-.83-2.99-.83-4.52,0-1.44.26-2.89.76-4.31.51-1.43,1.26-2.73,2.23-3.86.97-1.13,2.18-2.07,3.59-2.78,1.42-.72,3.06-1.08,4.87-1.08,2.15,0,4.02.51,5.56,1.5,1.53,1,2.69,2.29,3.45,3.85l.28.57-2.51,1.43-.32-.63c-.37-.73-.81-1.34-1.3-1.82-.5-.49-1.04-.88-1.61-1.18-.58-.3-1.18-.52-1.8-.66-2.02-.44-3.95-.18-5.41.59-1.03.54-1.91,1.26-2.62,2.13-.72.87-1.26,1.88-1.63,2.98-.37,1.11-.56,2.24-.56,3.36,0,1.26.22,2.47.66,3.61.44,1.14,1.05,2.16,1.8,3.02.75.86,1.65,1.55,2.68,2.07,1.55.78,3.33.98,5.25.52.67-.16,1.31-.4,1.91-.74.61-.33,1.18-.77,1.71-1.29.52-.51.96-1.13,1.31-1.83l.3-.59ZM269.37.16l10.19,24.12h-3.19l-3.18-7.51h-9.98l-3.18,7.51h-3.23L267.06.16h2.3ZM268.21,4.56l-4.04,9.52h8.01l-3.97-9.52ZM319.23,12.95c-.75-.51-1.66-.93-2.71-1.26-1.02-.32-2.15-.61-3.38-.86-1.16-.25-2.15-.49-2.98-.73-.77-.22-1.41-.48-1.89-.79-.45-.28-.76-.6-.97-.98-.2-.38-.31-.88-.31-1.5,0-1.23.42-2.18,1.28-2.9.89-.74,2.38-1.11,4.43-1.11,2.52,0,4.4.73,5.75,2.25l.59.66,1.62-2.49-.41-.39c-1-.96-2.14-1.68-3.37-2.15-1.23-.46-2.64-.7-4.18-.7-1.25,0-2.42.15-3.46.44-1.06.3-1.99.75-2.76,1.35-.78.6-1.4,1.36-1.84,2.24-.44.88-.66,1.9-.66,3.03,0,1.05.19,1.94.56,2.65.37.72.92,1.33,1.64,1.83.68.48,1.53.87,2.53,1.18.95.29,2.05.57,3.28.83,1.18.25,2.22.52,3.09.79.83.26,1.52.56,2.06.91.5.33.87.71,1.12,1.14.24.42.36.95.36,1.57,0,1.24-.45,2.14-1.38,2.74-1.01.65-2.45.98-4.3.98-1.63,0-3.12-.28-4.42-.83-1.3-.55-2.41-1.3-3.3-2.24l-.58-.61-1.65,2.5.42.39c2.57,2.38,5.76,3.58,9.47,3.58,1.27,0,2.44-.14,3.49-.41,1.07-.28,2.01-.69,2.79-1.24.8-.56,1.43-1.27,1.88-2.11.44-.84.67-1.83.67-2.94s-.22-2.08-.64-2.86c-.42-.78-1.03-1.44-1.82-1.97ZM368.01,24.28h-3.19l-3.17-7.51h-9.98l-3.17,7.51h-3.23L355.51.16h2.3l10.19,24.12ZM356.65,4.56l-4.04,9.52h8.01l-3.97-9.52Z"/>
</svg>