<?xml version="1.0" encoding="UTF-8"?>
<svg id="Layer_1" data-name="Layer 1" xmlns="http://www.w3.org/2000/svg" xmlns:xlink="http://www.w3.org/1999/xlink" viewBox="0 0 64 64.86">
  <defs>
    <style>
      .cls-1 {
        fill: none;
      }

      .cls-2 {
        fill: url(#linear-gradient);
      }

      .cls-3 {
        clip-path: url(#clippath);
      }
    </style>
    <clipPath id="clippath">
      <rect class="cls-1" y=".86" width="64" height="64" rx="3.98" ry="3.98"/>
    </clipPath>
    <linearGradient id="linear-gradient" x1="67.55" y1="-9.49" x2="-12.59" y2="70.64" gradientUnits="userSpaceOnUse">
      <stop offset=".11" stop-color="#dfd0a6"/>
      <stop offset=".21" stop-color="#d9c9a0"/>
      <stop offset=".35" stop-color="#c8b690"/>
      <stop offset=".52" stop-color="#ac9776"/>
      <stop offset=".71" stop-color="#866b52"/>
      <stop offset=".91" stop-color="#563425"/>
      <stop offset=".94" stop-color="#4f2c1e"/>
    </linearGradient>
  </defs>
  <g class="cls-3">
    <path class="cls-2" d="M27.11,64.86v-.04c-1.19,0-2.42-.52-3.75-1.57-2.23-1.66-3.37-3.84-3.37-6.45,0-1.09.24-2.23.71-3.46l3.32-8.06h24.18l2.75,6.73c.71,1.99,1.09,3.84,1.09,5.55,0,1.19-.19,2.32-.52,3.37-.85,2.61-2.13,3.89-3.89,3.89v.04h-20.53ZM24.87,42.63h22.49l-11.25-26.98-11.25,26.98ZM6.67,64.82c1.75,0,3.75-1.09,5.97-3.27,2.23-2.18,4.03-4.93,5.41-8.2L39.86,0H0v64.86h6.67v-.04ZM64,52.11V0h-21.29l21.29,52.11Z"/>
  </g>
</svg>